<?xml version="1.0" encoding="UTF-8" standalone="no"?>
<!DOCTYPE svg PUBLIC "-//W3C//DTD SVG 1.1//EN"
 "http://www.w3.org/Graphics/SVG/1.1/DTD/svg11.dtd">
<!-- Generated by graphviz version 15.1.0 (20260618.0150)
 -->
<!-- Title: release Pages: 1 -->
<svg width="320pt" height="213pt"
 viewBox="0.00 0.00 320.00 213.00" xmlns="http://www.w3.org/2000/svg" xmlns:xlink="http://www.w3.org/1999/xlink">
<g id="graph0" class="graph" transform="scale(1 1) rotate(0) translate(4 208.5)">
<title>release</title>
<polygon fill="white" stroke="none" points="-4,4 -4,-208.5 315.88,-208.5 315.88,4 -4,4"/>
<text xml:space="preserve" text-anchor="middle" x="155.94" y="-7.2" font-family="Times,serif" font-size="14.00">release</text>
<!-- release:c -->
<g id="release:c" class="node">
<title>release:c</title>
<path fill="lightgrey" stroke="black" d="M216.12,-204.5C216.12,-204.5 74.88,-204.5 74.88,-204.5 68.88,-204.5 62.88,-198.5 62.88,-192.5 62.88,-192.5 62.88,-180.5 62.88,-180.5 62.88,-174.5 68.88,-168.5 74.88,-168.5 74.88,-168.5 216.12,-168.5 216.12,-168.5 222.12,-168.5 228.12,-174.5 228.12,-180.5 228.12,-180.5 228.12,-192.5 228.12,-192.5 228.12,-198.5 222.12,-204.5 216.12,-204.5"/>
<text xml:space="preserve" text-anchor="middle" x="145.5" y="-181.45" font-family="Times,serif" font-size="14.00">Version 2.0 is ready to ship</text>
</g>
<!-- release:s -->
<g id="release:s" class="node">
<title>release:s</title>
<polygon fill="#f0c27f" stroke="black" points="250.3,-114.5 197.9,-132.5 93.1,-132.5 40.7,-114.5 93.1,-96.5 197.9,-96.5 250.3,-114.5"/>
<text xml:space="preserve" text-anchor="middle" x="145.5" y="-109.45" font-family="Times,serif" font-size="14.00">All release gates pass</text>
</g>
<!-- release:s&#45;&gt;release:c -->
<g id="edge1" class="edge">
<title>release:s&#45;&gt;release:c</title>
<path fill="none" stroke="black" d="M145.5,-132.8C145.5,-140.09 145.5,-148.77 145.5,-156.96"/>
<polygon fill="black" stroke="black" points="142,-156.88 145.5,-166.88 149,-156.88 142,-156.88"/>
</g>
<!-- release:e1 -->
<g id="release:e1" class="node">
<title>release:e1</title>
<polygon fill="#9ecae1" stroke="black" points="121,-60.5 0,-60.5 0,-24.5 127,-24.5 127,-54.5 121,-60.5"/>
<polyline fill="none" stroke="black" points="121,-60.5 121,-54.5"/>
<polyline fill="none" stroke="black" points="127,-54.5 121,-54.5"/>
<text xml:space="preserve" text-anchor="middle" x="63.5" y="-37.45" font-family="Times,serif" font-size="14.00">The test suite passes</text>
</g>
<!-- release:e1&#45;&gt;release:s -->
<g id="edge2" class="edge">
<title>release:e1&#45;&gt;release:s</title>
<path fill="none" stroke="black" d="M83.77,-60.8C93.63,-69.22 105.65,-79.48 116.46,-88.71"/>
<polygon fill="black" stroke="black" points="114.15,-91.34 124.03,-95.17 118.69,-86.02 114.15,-91.34"/>
</g>
<!-- release:e2 -->
<g id="release:e2" class="node">
<title>release:e2</title>
<polygon fill="#9ecae1" stroke="black" points="305.88,-60.5 145.12,-60.5 145.12,-24.5 311.88,-24.5 311.88,-54.5 305.88,-60.5"/>
<polyline fill="none" stroke="black" points="305.88,-60.5 305.88,-54.5"/>
<polyline fill="none" stroke="black" points="311.88,-54.5 305.88,-54.5"/>
<text xml:space="preserve" text-anchor="middle" x="228.5" y="-37.45" font-family="Times,serif" font-size="14.00">The changelog is up to date</text>
</g>
<!-- release:e2&#45;&gt;release:s -->
<g id="edge3" class="edge">
<title>release:e2&#45;&gt;release:s</title>
<path fill="none" stroke="black" d="M207.98,-60.8C197.91,-69.3 185.59,-79.69 174.57,-88.99"/>
<polygon fill="black" stroke="black" points="172.61,-86.05 167.23,-95.18 177.13,-91.41 172.61,-86.05"/>
</g>
</g>
</svg>
