<?xml version="1.0" encoding="UTF-8" standalone="no"?>
<!DOCTYPE svg PUBLIC "-//W3C//DTD SVG 1.1//EN"
 "http://www.w3.org/Graphics/SVG/1.1/DTD/svg11.dtd">
<!-- Generated by graphviz version 15.1.0 (20260618.0150)
 -->
<!-- Pages: 1 -->
<svg width="348pt" height="188pt"
 viewBox="0.00 0.00 348.00 188.00" xmlns="http://www.w3.org/2000/svg" xmlns:xlink="http://www.w3.org/1999/xlink">
<g id="graph0" class="graph" transform="scale(1 1) rotate(0) translate(4 184)">
<polygon fill="white" stroke="none" points="-4,4 -4,-184 343.75,-184 343.75,4 -4,4"/>
<!-- release_c -->
<g id="node1" class="node">
<title>release_c</title>
<polygon fill="#cccccc" stroke="black" points="247.88,-180 57.12,-180 57.12,-144 247.88,-144 247.88,-180"/>
<text xml:space="preserve" text-anchor="middle" x="152.5" y="-156.2" font-family="Helvetica,sans-Serif" font-weight="bold" font-size="14.00" fill="white">Version 2.0 is ready to ship</text>
</g>
<!-- release_s -->
<g id="node2" class="node">
<title>release_s</title>
<polygon fill="#cccccc" stroke="black" points="270.33,-90 211.41,-108 93.59,-108 34.67,-90 93.59,-72 211.41,-72 270.33,-90"/>
<text xml:space="preserve" text-anchor="middle" x="152.5" y="-84.2" font-family="Helvetica,sans-Serif" font-weight="bold" font-size="14.00" fill="white">All release gates pass</text>
</g>
<!-- release_s&#45;&gt;release_c -->
<g id="edge1" class="edge">
<title>release_s&#45;&gt;release_c</title>
<path fill="none" stroke="#cccccc" d="M152.5,-108.3C152.5,-115.59 152.5,-124.27 152.5,-132.46"/>
<polygon fill="#cccccc" stroke="#cccccc" points="149,-132.38 152.5,-142.38 156,-132.38 149,-132.38"/>
</g>
<!-- release_e1 -->
<g id="node3" class="node">
<title>release_e1</title>
<polygon fill="#9ecae1" stroke="black" points="121,-36 0,-36 0,0 127,0 127,-30 121,-36"/>
<polyline fill="none" stroke="black" points="121,-36 121,-30"/>
<polyline fill="none" stroke="black" points="127,-30 121,-30"/>
<text xml:space="preserve" text-anchor="middle" x="63.5" y="-12.95" font-family="Times,serif" font-size="14.00">The test suite passes</text>
</g>
<!-- release_e1&#45;&gt;release_s -->
<g id="edge2" class="edge">
<title>release_e1&#45;&gt;release_s</title>
<path fill="none" stroke="black" d="M85.5,-36.3C96.41,-44.89 109.77,-55.39 121.68,-64.76"/>
<polygon fill="black" stroke="black" points="119.23,-67.29 129.25,-70.72 123.56,-61.78 119.23,-67.29"/>
</g>
<!-- release_e2 -->
<g id="node4" class="node">
<title>release_e2</title>
<polygon fill="red" stroke="black" points="333.75,-36 145.25,-36 145.25,0 339.75,0 339.75,-30 333.75,-36"/>
<polyline fill="none" stroke="black" points="333.75,-36 333.75,-30"/>
<polyline fill="none" stroke="black" points="339.75,-30 333.75,-30"/>
<text xml:space="preserve" text-anchor="middle" x="242.5" y="-12.2" font-family="Helvetica,sans-Serif" font-weight="bold" font-size="14.00" fill="white">The changelog is up to date</text>
</g>
<!-- release_e2&#45;&gt;release_s -->
<g id="edge3" class="edge">
<title>release_e2&#45;&gt;release_s</title>
<path fill="none" stroke="red" d="M220.25,-36.3C209.22,-44.89 195.71,-55.39 183.66,-64.76"/>
<polygon fill="red" stroke="red" points="181.74,-61.82 176,-70.72 186.04,-67.35 181.74,-61.82"/>
</g>
</g>
</svg>
