<?xml version="1.0" encoding="UTF-8" standalone="no"?>
<!DOCTYPE svg PUBLIC "-//W3C//DTD SVG 1.1//EN"
 "http://www.w3.org/Graphics/SVG/1.1/DTD/svg11.dtd">
<!-- Generated by graphviz version 15.1.0 (20260618.0150)
 -->
<!-- Title: readiness Pages: 1 -->
<svg width="766pt" height="357pt"
 viewBox="0.00 0.00 766.00 357.00" xmlns="http://www.w3.org/2000/svg" xmlns:xlink="http://www.w3.org/1999/xlink">
<g id="graph0" class="graph" transform="scale(1 1) rotate(0) translate(4 352.5)">
<title>readiness</title>
<polygon fill="white" stroke="none" points="-4,4 -4,-352.5 762.35,-352.5 762.35,4 -4,4"/>
<text xml:space="preserve" text-anchor="middle" x="379.18" y="-7.2" font-family="Times,serif" font-size="14.00">readiness</text>
<!-- readiness:assembleConclusion -->
<g id="readiness:assembleConclusion" class="node">
<title>readiness:assembleConclusion</title>
<path fill="lightgrey" stroke="black" d="M449.8,-348.5C449.8,-348.5 308.55,-348.5 308.55,-348.5 302.55,-348.5 296.55,-342.5 296.55,-336.5 296.55,-336.5 296.55,-324.5 296.55,-324.5 296.55,-318.5 302.55,-312.5 308.55,-312.5 308.55,-312.5 449.8,-312.5 449.8,-312.5 455.8,-312.5 461.8,-318.5 461.8,-324.5 461.8,-324.5 461.8,-336.5 461.8,-336.5 461.8,-342.5 455.8,-348.5 449.8,-348.5"/>
<text xml:space="preserve" text-anchor="middle" x="379.18" y="-325.45" font-family="Times,serif" font-size="14.00">Version 2.0 is ready to ship</text>
</g>
<!-- readiness:tested:tested -->
<g id="readiness:tested:tested" class="node">
<title>readiness:tested:tested</title>
<polygon fill="none" stroke="#0072b2" points="353.3,-204.5 239.05,-204.5 239.05,-168.5 353.3,-168.5 353.3,-204.5"/>
<text xml:space="preserve" text-anchor="middle" x="296.18" y="-181.45" font-family="Times,serif" font-size="14.00">The code is tested</text>
</g>
<!-- readiness:assembleStrategy -->
<g id="readiness:assembleStrategy" class="node">
<title>readiness:assembleStrategy</title>
<polygon fill="#f0c27f" stroke="black" points="483.98,-258.5 431.58,-276.5 326.77,-276.5 274.37,-258.5 326.77,-240.5 431.58,-240.5 483.98,-258.5"/>
<text xml:space="preserve" text-anchor="middle" x="379.18" y="-253.45" font-family="Times,serif" font-size="14.00">All release gates pass</text>
</g>
<!-- readiness:tested:tested&#45;&gt;readiness:assembleStrategy -->
<g id="edge7" class="edge">
<title>readiness:tested:tested&#45;&gt;readiness:assembleStrategy</title>
<path fill="none" stroke="black" d="M316.69,-204.8C326.77,-213.3 339.08,-223.69 350.11,-232.99"/>
<polygon fill="black" stroke="black" points="347.55,-235.41 357.45,-239.18 352.06,-230.05 347.55,-235.41"/>
</g>
<!-- readiness:tested:testing -->
<g id="readiness:tested:testing" class="node">
<title>readiness:tested:testing</title>
<polygon fill="#f0c27f" stroke="black" points="370.35,-114.5 277.76,-132.5 92.59,-132.5 0,-114.5 92.59,-96.5 277.76,-96.5 370.35,-114.5"/>
<text xml:space="preserve" text-anchor="middle" x="185.18" y="-109.45" font-family="Times,serif" font-size="14.00">The test suite passes with high coverage</text>
</g>
<!-- readiness:tested:testing&#45;&gt;readiness:tested:tested -->
<g id="edge2" class="edge">
<title>readiness:tested:testing&#45;&gt;readiness:tested:tested</title>
<path fill="none" stroke="black" d="M212.9,-132.98C226.91,-141.82 244.1,-152.66 259.22,-162.2"/>
<polygon fill="black" stroke="black" points="257.2,-165.06 267.52,-167.43 260.93,-159.14 257.2,-165.06"/>
</g>
<!-- readiness:tested:suite -->
<g id="readiness:tested:suite" class="node">
<title>readiness:tested:suite</title>
<polygon fill="#9ecae1" stroke="black" points="165.68,-60.5 44.68,-60.5 44.68,-24.5 171.68,-24.5 171.68,-54.5 165.68,-60.5"/>
<polyline fill="none" stroke="black" points="165.68,-60.5 165.68,-54.5"/>
<polyline fill="none" stroke="black" points="171.68,-54.5 165.68,-54.5"/>
<text xml:space="preserve" text-anchor="middle" x="108.18" y="-37.45" font-family="Times,serif" font-size="14.00">The test suite passes</text>
</g>
<!-- readiness:tested:suite&#45;&gt;readiness:tested:testing -->
<g id="edge4" class="edge">
<title>readiness:tested:suite&#45;&gt;readiness:tested:testing</title>
<path fill="none" stroke="black" d="M127.21,-60.8C136.37,-69.13 147.53,-79.28 157.6,-88.43"/>
<polygon fill="black" stroke="black" points="155.22,-91 164.97,-95.13 159.93,-85.82 155.22,-91"/>
</g>
<!-- readiness:tested:coverage -->
<g id="readiness:tested:coverage" class="node">
<title>readiness:tested:coverage</title>
<polygon fill="#9ecae1" stroke="black" points="329.05,-60.5 189.3,-60.5 189.3,-24.5 335.05,-24.5 335.05,-54.5 329.05,-60.5"/>
<polyline fill="none" stroke="black" points="329.05,-60.5 329.05,-54.5"/>
<polyline fill="none" stroke="black" points="335.05,-54.5 329.05,-54.5"/>
<text xml:space="preserve" text-anchor="middle" x="262.18" y="-37.45" font-family="Times,serif" font-size="14.00">Coverage is above 80%</text>
</g>
<!-- readiness:tested:coverage&#45;&gt;readiness:tested:testing -->
<g id="edge5" class="edge">
<title>readiness:tested:coverage&#45;&gt;readiness:tested:testing</title>
<path fill="none" stroke="black" d="M243.14,-60.8C233.98,-69.13 222.82,-79.28 212.75,-88.43"/>
<polygon fill="black" stroke="black" points="210.42,-85.82 205.38,-95.13 215.13,-91 210.42,-85.82"/>
</g>
<!-- readiness:documented:documented -->
<g id="readiness:documented:documented" class="node">
<title>readiness:documented:documented</title>
<polygon fill="none" stroke="#0072b2" points="607.68,-204.5 426.68,-204.5 426.68,-168.5 607.68,-168.5 607.68,-204.5"/>
<text xml:space="preserve" text-anchor="middle" x="517.18" y="-181.45" font-family="Times,serif" font-size="14.00">The documentation is updated</text>
</g>
<!-- readiness:documented:documented&#45;&gt;readiness:assembleStrategy -->
<g id="edge8" class="edge">
<title>readiness:documented:documented&#45;&gt;readiness:assembleStrategy</title>
<path fill="none" stroke="black" d="M482.71,-204.98C464.71,-214.11 442.48,-225.39 423.24,-235.15"/>
<polygon fill="black" stroke="black" points="421.89,-231.91 414.55,-239.55 425.05,-238.15 421.89,-231.91"/>
</g>
<!-- readiness:documented:docs -->
<g id="readiness:documented:docs" class="node">
<title>readiness:documented:docs</title>
<polygon fill="#f0c27f" stroke="black" points="758.35,-114.5 665.76,-132.5 480.59,-132.5 388,-114.5 480.59,-96.5 665.76,-96.5 758.35,-114.5"/>
<text xml:space="preserve" text-anchor="middle" x="573.18" y="-109.45" font-family="Times,serif" font-size="14.00">The changelog and API docs are current</text>
</g>
<!-- readiness:documented:docs&#45;&gt;readiness:documented:documented -->
<g id="edge3" class="edge">
<title>readiness:documented:docs&#45;&gt;readiness:documented:documented</title>
<path fill="none" stroke="black" d="M559.33,-132.8C552.89,-140.86 545.09,-150.61 537.96,-159.52"/>
<polygon fill="black" stroke="black" points="535.32,-157.22 531.8,-167.21 540.78,-161.59 535.32,-157.22"/>
</g>
<!-- readiness:documented:changelog -->
<g id="readiness:documented:changelog" class="node">
<title>readiness:documented:changelog</title>
<polygon fill="#9ecae1" stroke="black" points="650.55,-60.5 489.8,-60.5 489.8,-24.5 656.55,-24.5 656.55,-54.5 650.55,-60.5"/>
<polyline fill="none" stroke="black" points="650.55,-60.5 650.55,-54.5"/>
<polyline fill="none" stroke="black" points="656.55,-54.5 650.55,-54.5"/>
<text xml:space="preserve" text-anchor="middle" x="573.18" y="-37.45" font-family="Times,serif" font-size="14.00">The changelog is up to date</text>
</g>
<!-- readiness:documented:changelog&#45;&gt;readiness:documented:docs -->
<g id="edge6" class="edge">
<title>readiness:documented:changelog&#45;&gt;readiness:documented:docs</title>
<path fill="none" stroke="black" d="M573.18,-60.8C573.18,-68.09 573.18,-76.77 573.18,-84.96"/>
<polygon fill="black" stroke="black" points="569.68,-84.88 573.18,-94.88 576.68,-84.88 569.68,-84.88"/>
</g>
<!-- readiness:assembleStrategy&#45;&gt;readiness:assembleConclusion -->
<g id="edge1" class="edge">
<title>readiness:assembleStrategy&#45;&gt;readiness:assembleConclusion</title>
<path fill="none" stroke="black" d="M379.18,-276.8C379.18,-284.09 379.18,-292.77 379.18,-300.96"/>
<polygon fill="black" stroke="black" points="375.68,-300.88 379.18,-310.88 382.68,-300.88 375.68,-300.88"/>
</g>
</g>
</svg>
