<?xml version="1.0" encoding="UTF-8" standalone="no"?>
<!DOCTYPE svg PUBLIC "-//W3C//DTD SVG 1.1//EN"
 "http://www.w3.org/Graphics/SVG/1.1/DTD/svg11.dtd">
<!-- Generated by graphviz version 15.1.0 (20260618.0150)
 -->
<!-- Title: documented Pages: 1 -->
<svg width="378pt" height="213pt"
 viewBox="0.00 0.00 378.00 213.00" xmlns="http://www.w3.org/2000/svg" xmlns:xlink="http://www.w3.org/1999/xlink">
<g id="graph0" class="graph" transform="scale(1 1) rotate(0) translate(4 208.5)">
<title>documented</title>
<polygon fill="white" stroke="none" points="-4,4 -4,-208.5 374.35,-208.5 374.35,4 -4,4"/>
<text xml:space="preserve" text-anchor="middle" x="185.18" y="-7.2" font-family="Times,serif" font-size="14.00">documented</text>
<!-- documented:documented -->
<g id="documented:documented" class="node">
<title>documented:documented</title>
<path fill="lightgrey" stroke="black" d="M263.68,-204.5C263.68,-204.5 106.68,-204.5 106.68,-204.5 100.68,-204.5 94.68,-198.5 94.68,-192.5 94.68,-192.5 94.68,-180.5 94.68,-180.5 94.68,-174.5 100.68,-168.5 106.68,-168.5 106.68,-168.5 263.68,-168.5 263.68,-168.5 269.68,-168.5 275.68,-174.5 275.68,-180.5 275.68,-180.5 275.68,-192.5 275.68,-192.5 275.68,-198.5 269.68,-204.5 263.68,-204.5"/>
<text xml:space="preserve" text-anchor="middle" x="185.18" y="-181.45" font-family="Times,serif" font-size="14.00">The documentation is updated</text>
</g>
<!-- documented:docs -->
<g id="documented:docs" class="node">
<title>documented:docs</title>
<polygon fill="#f0c27f" stroke="black" points="370.35,-114.5 277.76,-132.5 92.59,-132.5 0,-114.5 92.59,-96.5 277.76,-96.5 370.35,-114.5"/>
<text xml:space="preserve" text-anchor="middle" x="185.18" y="-109.45" font-family="Times,serif" font-size="14.00">The changelog and API docs are current</text>
</g>
<!-- documented:docs&#45;&gt;documented:documented -->
<g id="edge1" class="edge">
<title>documented:docs&#45;&gt;documented:documented</title>
<path fill="none" stroke="black" d="M185.18,-132.8C185.18,-140.09 185.18,-148.77 185.18,-156.96"/>
<polygon fill="black" stroke="black" points="181.68,-156.88 185.18,-166.88 188.68,-156.88 181.68,-156.88"/>
</g>
<!-- documented:changelog -->
<g id="documented:changelog" class="node">
<title>documented:changelog</title>
<polygon fill="#9ecae1" stroke="black" points="262.55,-60.5 101.8,-60.5 101.8,-24.5 268.55,-24.5 268.55,-54.5 262.55,-60.5"/>
<polyline fill="none" stroke="black" points="262.55,-60.5 262.55,-54.5"/>
<polyline fill="none" stroke="black" points="268.55,-54.5 262.55,-54.5"/>
<text xml:space="preserve" text-anchor="middle" x="185.18" y="-37.45" font-family="Times,serif" font-size="14.00">The changelog is up to date</text>
</g>
<!-- documented:changelog&#45;&gt;documented:docs -->
<g id="edge2" class="edge">
<title>documented:changelog&#45;&gt;documented:docs</title>
<path fill="none" stroke="black" d="M185.18,-60.8C185.18,-68.09 185.18,-76.77 185.18,-84.96"/>
<polygon fill="black" stroke="black" points="181.68,-84.88 185.18,-94.88 188.68,-84.88 181.68,-84.88"/>
</g>
</g>
</svg>
