<?xml version="1.0" encoding="UTF-8" standalone="no"?>
<!DOCTYPE svg PUBLIC "-//W3C//DTD SVG 1.1//EN"
 "http://www.w3.org/Graphics/SVG/1.1/DTD/svg11.dtd">
<!-- Generated by graphviz version 15.1.0 (20260618.0150)
 -->
<!-- Title: refined Pages: 1 -->
<svg width="345pt" height="357pt"
 viewBox="0.00 0.00 345.00 357.00" xmlns="http://www.w3.org/2000/svg" xmlns:xlink="http://www.w3.org/1999/xlink">
<g id="graph0" class="graph" transform="scale(1 1) rotate(0) translate(4 352.5)">
<title>refined</title>
<polygon fill="white" stroke="none" points="-4,4 -4,-352.5 341.26,-352.5 341.26,4 -4,4"/>
<text xml:space="preserve" text-anchor="middle" x="168.63" y="-7.2" font-family="Times,serif" font-size="14.00">refined</text>
<!-- refined:base:c -->
<g id="refined:base:c" class="node">
<title>refined:base:c</title>
<path fill="lightgrey" stroke="black" d="M239.25,-348.5C239.25,-348.5 98,-348.5 98,-348.5 92,-348.5 86,-342.5 86,-336.5 86,-336.5 86,-324.5 86,-324.5 86,-318.5 92,-312.5 98,-312.5 98,-312.5 239.25,-312.5 239.25,-312.5 245.25,-312.5 251.25,-318.5 251.25,-324.5 251.25,-324.5 251.25,-336.5 251.25,-336.5 251.25,-342.5 245.25,-348.5 239.25,-348.5"/>
<text xml:space="preserve" text-anchor="middle" x="168.63" y="-325.45" font-family="Times,serif" font-size="14.00">Version 2.0 is ready to ship</text>
</g>
<!-- refined:base:s -->
<g id="refined:base:s" class="node">
<title>refined:base:s</title>
<polygon fill="#f0c27f" stroke="black" points="273.43,-258.5 221.03,-276.5 116.23,-276.5 63.83,-258.5 116.23,-240.5 221.03,-240.5 273.43,-258.5"/>
<text xml:space="preserve" text-anchor="middle" x="168.63" y="-253.45" font-family="Times,serif" font-size="14.00">All release gates pass</text>
</g>
<!-- refined:base:s&#45;&gt;refined:base:c -->
<g id="edge1" class="edge">
<title>refined:base:s&#45;&gt;refined:base:c</title>
<path fill="none" stroke="black" d="M168.63,-276.8C168.63,-284.09 168.63,-292.77 168.63,-300.96"/>
<polygon fill="black" stroke="black" points="165.13,-300.88 168.63,-310.88 172.13,-300.88 165.13,-300.88"/>
</g>
<!-- refined:hook -->
<g id="refined:hook" class="node">
<title>refined:hook</title>
<polygon fill="none" stroke="#0072b2" points="232.13,-204.5 105.13,-204.5 105.13,-168.5 232.13,-168.5 232.13,-204.5"/>
<text xml:space="preserve" text-anchor="middle" x="168.63" y="-181.45" font-family="Times,serif" font-size="14.00">The test suite passes</text>
</g>
<!-- refined:hook&#45;&gt;refined:base:s -->
<g id="edge3" class="edge">
<title>refined:hook&#45;&gt;refined:base:s</title>
<path fill="none" stroke="black" d="M168.63,-204.8C168.63,-212.09 168.63,-220.77 168.63,-228.96"/>
<polygon fill="black" stroke="black" points="165.13,-228.88 168.63,-238.88 172.13,-228.88 165.13,-228.88"/>
</g>
<!-- refined:detail:ds -->
<g id="refined:detail:ds" class="node">
<title>refined:detail:ds</title>
<polygon fill="#f0c27f" stroke="black" points="337.26,-114.5 252.94,-132.5 84.31,-132.5 0,-114.5 84.31,-96.5 252.94,-96.5 337.26,-114.5"/>
<text xml:space="preserve" text-anchor="middle" x="168.63" y="-109.45" font-family="Times,serif" font-size="14.00">Unit and integration suites are green</text>
</g>
<!-- refined:detail:ds&#45;&gt;refined:hook -->
<g id="edge2" class="edge">
<title>refined:detail:ds&#45;&gt;refined:hook</title>
<path fill="none" stroke="black" d="M168.63,-132.8C168.63,-140.09 168.63,-148.77 168.63,-156.96"/>
<polygon fill="black" stroke="black" points="165.13,-156.88 168.63,-166.88 172.13,-156.88 165.13,-156.88"/>
</g>
<!-- refined:detail:de -->
<g id="refined:detail:de" class="node">
<title>refined:detail:de</title>
<polygon fill="#9ecae1" stroke="black" points="229.13,-60.5 102.13,-60.5 102.13,-24.5 235.13,-24.5 235.13,-54.5 229.13,-60.5"/>
<polyline fill="none" stroke="black" points="229.13,-60.5 229.13,-54.5"/>
<polyline fill="none" stroke="black" points="235.13,-54.5 229.13,-54.5"/>
<text xml:space="preserve" text-anchor="middle" x="168.63" y="-37.45" font-family="Times,serif" font-size="14.00">CI reported 0 failures</text>
</g>
<!-- refined:detail:de&#45;&gt;refined:detail:ds -->
<g id="edge4" class="edge">
<title>refined:detail:de&#45;&gt;refined:detail:ds</title>
<path fill="none" stroke="black" d="M168.63,-60.8C168.63,-68.09 168.63,-76.77 168.63,-84.96"/>
<polygon fill="black" stroke="black" points="165.13,-84.88 168.63,-94.88 172.13,-84.88 165.13,-84.88"/>
</g>
</g>
</svg>
